<mxfile host="Electron" agent="Mozilla/5.0 (Macintosh; Intel Mac OS X 10_15_7) AppleWebKit/537.36 (KHTML, like Gecko) draw.io/24.7.17 Chrome/128.0.6613.36 Electron/32.0.1 Safari/537.36" version="24.7.17">
  <diagram name="Page-1" id="dCPUgscuuK9c2UTiG2F9">
    <mxGraphModel dx="1114" dy="821" grid="1" gridSize="10" guides="1" tooltips="1" connect="1" arrows="1" fold="1" page="1" pageScale="1" pageWidth="827" pageHeight="1169" math="0" shadow="0">
      <root>
        <mxCell id="0" />
        <mxCell id="1" parent="0" />
        <mxCell id="NgQLep-ozd4PjJoE9RYC-17" value="" style="rounded=1;whiteSpace=wrap;html=1;fillColor=#f5f5f5;fontColor=#333333;strokeColor=none;" vertex="1" parent="1">
          <mxGeometry x="100" y="100" width="310" height="210" as="geometry" />
        </mxCell>
        <mxCell id="NgQLep-ozd4PjJoE9RYC-1" value="" style="ellipse;whiteSpace=wrap;html=1;" vertex="1" parent="1">
          <mxGeometry x="120" y="120" width="100" height="40" as="geometry" />
        </mxCell>
        <mxCell id="NgQLep-ozd4PjJoE9RYC-13" style="edgeStyle=orthogonalEdgeStyle;rounded=0;orthogonalLoop=1;jettySize=auto;html=1;entryX=0;entryY=0.5;entryDx=0;entryDy=0;endArrow=block;endFill=1;" edge="1" parent="1" source="NgQLep-ozd4PjJoE9RYC-2" target="NgQLep-ozd4PjJoE9RYC-7">
          <mxGeometry relative="1" as="geometry" />
        </mxCell>
        <mxCell id="NgQLep-ozd4PjJoE9RYC-2" value="" style="ellipse;whiteSpace=wrap;html=1;" vertex="1" parent="1">
          <mxGeometry x="130" y="130" width="100" height="40" as="geometry" />
        </mxCell>
        <mxCell id="NgQLep-ozd4PjJoE9RYC-15" style="edgeStyle=orthogonalEdgeStyle;rounded=0;orthogonalLoop=1;jettySize=auto;html=1;endArrow=block;endFill=1;" edge="1" parent="1" source="NgQLep-ozd4PjJoE9RYC-3">
          <mxGeometry relative="1" as="geometry">
            <mxPoint x="40" y="160" as="targetPoint" />
          </mxGeometry>
        </mxCell>
        <mxCell id="NgQLep-ozd4PjJoE9RYC-3" value="네트워크 스레드" style="ellipse;whiteSpace=wrap;html=1;" vertex="1" parent="1">
          <mxGeometry x="140" y="140" width="100" height="40" as="geometry" />
        </mxCell>
        <mxCell id="NgQLep-ozd4PjJoE9RYC-4" value="" style="ellipse;whiteSpace=wrap;html=1;" vertex="1" parent="1">
          <mxGeometry x="278" y="221" width="100" height="40" as="geometry" />
        </mxCell>
        <mxCell id="NgQLep-ozd4PjJoE9RYC-12" style="edgeStyle=orthogonalEdgeStyle;rounded=0;orthogonalLoop=1;jettySize=auto;html=1;entryX=1;entryY=0.5;entryDx=0;entryDy=0;endArrow=block;endFill=1;" edge="1" parent="1" source="NgQLep-ozd4PjJoE9RYC-5" target="NgQLep-ozd4PjJoE9RYC-8">
          <mxGeometry relative="1" as="geometry" />
        </mxCell>
        <mxCell id="NgQLep-ozd4PjJoE9RYC-5" value="" style="ellipse;whiteSpace=wrap;html=1;" vertex="1" parent="1">
          <mxGeometry x="288" y="231" width="100" height="40" as="geometry" />
        </mxCell>
        <mxCell id="NgQLep-ozd4PjJoE9RYC-6" value="I/O 스레드" style="ellipse;whiteSpace=wrap;html=1;" vertex="1" parent="1">
          <mxGeometry x="298" y="241" width="100" height="40" as="geometry" />
        </mxCell>
        <mxCell id="NgQLep-ozd4PjJoE9RYC-11" style="edgeStyle=orthogonalEdgeStyle;rounded=0;orthogonalLoop=1;jettySize=auto;html=1;entryX=0.5;entryY=0;entryDx=0;entryDy=0;endArrow=block;endFill=1;" edge="1" parent="1" source="NgQLep-ozd4PjJoE9RYC-7" target="NgQLep-ozd4PjJoE9RYC-4">
          <mxGeometry relative="1" as="geometry" />
        </mxCell>
        <mxCell id="NgQLep-ozd4PjJoE9RYC-7" value="요청 큐" style="rounded=0;whiteSpace=wrap;html=1;" vertex="1" parent="1">
          <mxGeometry x="288" y="130" width="80" height="40" as="geometry" />
        </mxCell>
        <mxCell id="NgQLep-ozd4PjJoE9RYC-8" value="응답 큐" style="rounded=0;whiteSpace=wrap;html=1;" vertex="1" parent="1">
          <mxGeometry x="130" y="231" width="80" height="40" as="geometry" />
        </mxCell>
        <mxCell id="NgQLep-ozd4PjJoE9RYC-14" value="" style="endArrow=none;html=1;rounded=0;entryX=0;entryY=0.5;entryDx=0;entryDy=0;" edge="1" parent="1" target="NgQLep-ozd4PjJoE9RYC-1">
          <mxGeometry width="50" height="50" relative="1" as="geometry">
            <mxPoint x="40" y="140" as="sourcePoint" />
            <mxPoint x="440" y="400" as="targetPoint" />
          </mxGeometry>
        </mxCell>
        <mxCell id="NgQLep-ozd4PjJoE9RYC-16" value="연결" style="text;html=1;align=center;verticalAlign=middle;whiteSpace=wrap;rounded=0;" vertex="1" parent="1">
          <mxGeometry x="50" y="110" width="60" height="30" as="geometry" />
        </mxCell>
      </root>
    </mxGraphModel>
  </diagram>
</mxfile>
